<svg width="732" height="462" xmlns="http://www.w3.org/2000/svg" xmlns:xlink="http://www.w3.org/1999/xlink">
    <defs>
        <path id="a" d="M0 0h731.5v462H0z"/>
    </defs>
    <g fill="none" fill-rule="evenodd">
        <mask id="b" fill="#fff">
            <use xlink:href="#a"/>
        </mask>
        <use fill="#F2F2F2" xlink:href="#a"/>
        <g mask="url(#b)" fill="#000" fill-opacity=".03">
            <path d="M44.9 7v46.599L91.8 31.3zM-6.3 31.099 39.9 54.1 40.2 7zM44.9 109.1l46.9-24.3-46.9-22.3zM-5.8 85.5l45 23.6V61.5zM-10 81.8l46.6-23.4L-10 34.2zM366.9 62v46.599L413.8 86.3zM315.7 86.099l46.2 23.001.3-47.1zM366.9 164.1l46.9-24.3-46.9-22.3zM316.2 140.5l45 23.6v-47.6zM312 136.8l46.6-23.4L312 89.2zM689.9 8v46.599L736.8 32.3zM638.7 32.099 684.9 55.1l.3-47.1zM689.9 110.1l46.9-24.3-46.9-22.3zM640.2 86.5l45 23.6V62.5zM635 82.8l46.6-23.4L635 35.2zM205.9-19v46.599L252.8 5.3zM154.7 5.099 200.9 28.1l.3-47.1zM205.9 83.1l46.9-24.3-46.9-22.3zM155.2 59.5l45 23.6V35.5zM151 55.8l46.6-23.4L151 8.2zM528.9 37v46.599L575.8 61.3zM477.7 61.099 523.9 84.1l.3-47.1zM528.9 139.1l46.9-24.3-46.9-22.3zM478.2 115.5l45 23.6V91.5zM474 111.8l46.6-23.4L474 64.2zM528.9 31.1l46.9-24.3-46.9-22.3zM478.2 7.5l45 23.6v-47.6zM44.9 223v46.599L91.8 247.3zM-6.3 247.099 39.9 270.1l.3-47.1zM44.9 325.1l46.9-24.3-46.9-22.3zM-5.8 301.5l45 23.6v-47.6zM-10 297.8l46.6-23.4-46.6-24.2zM366.9 278v46.599l46.9-22.299zM315.7 302.099l46.2 23.001.3-47.1zM366.9 380.1l46.9-24.3-46.9-22.3zM316.2 356.5l45 23.6v-47.6zM312 352.8l46.6-23.4-46.6-24.2zM689.9 224v46.599l46.9-22.299zM638.7 248.099l46.2 23.001.3-47.1zM689.9 326.1l46.9-24.3-46.9-22.3zM640.2 302.5l45 23.6v-47.6zM635 298.8l46.6-23.4-46.6-24.2zM205.9 197v46.599l46.9-22.299zM154.7 221.099l46.2 23.001.3-47.1zM205.9 299.1l46.9-24.3-46.9-22.3zM155.2 275.5l45 23.6v-47.6zM151 271.8l46.6-23.4-46.6-24.2zM528.9 253v46.599l46.9-22.299zM477.7 277.099l46.2 23.001.3-47.1zM528.9 355.1l46.9-24.3-46.9-22.3zM478.2 331.5l45 23.6v-47.6zM474 327.8l46.6-23.4-46.6-24.2zM44.9 115v46.599L91.8 139.3zM-6.3 139.099 39.9 162.1l.3-47.1zM44.9 217.1l46.9-24.3-46.9-22.3zM-5.8 193.5l45 23.6v-47.6zM-10 189.8l46.6-23.4-46.6-24.2zM366.9 170v46.599l46.9-22.299zM315.7 194.099l46.2 23.001.3-47.1zM366.9 272.1l46.9-24.3-46.9-22.3zM316.2 248.5l45 23.6v-47.6zM312 244.8l46.6-23.4-46.6-24.2zM689.9 116v46.599l46.9-22.299zM638.7 140.099l46.2 23.001.3-47.1zM689.9 218.1l46.9-24.3-46.9-22.3zM640.2 194.5l45 23.6v-47.6zM635 190.8l46.6-23.4-46.6-24.2zM205.9 89v46.599l46.9-22.299zM154.7 113.099l46.2 23.001.3-47.1zM205.9 191.1l46.9-24.3-46.9-22.3zM155.2 167.5l45 23.6v-47.6zM151 163.8l46.6-23.4-46.6-24.2zM528.9 145v46.599l46.9-22.299zM477.7 169.099l46.2 23.001.3-47.1zM528.9 247.1l46.9-24.3-46.9-22.3zM478.2 223.5l45 23.6v-47.6zM474 219.8l46.6-23.4-46.6-24.2zM44.9 331v46.599L91.8 355.3zM-6.3 355.099 39.9 378.1l.3-47.1zM44.9 433.1l46.9-24.3-46.9-22.3zM-5.8 409.5l45 23.6v-47.6zM-10 405.8l46.6-23.4-46.6-24.2zM43.9 439v46.599L90.8 463.3zM-7.3 463.099 38.9 486.1l.3-47.1zM366.9 386v46.599l46.9-22.299zM315.7 410.099l46.2 23.001.3-47.1zM366.9 488.1l46.9-24.3-46.9-22.3zM316.2 464.5l45 23.6v-47.6zM312 460.8l46.6-23.4-46.6-24.2zM366.9 57.1l46.9-24.3-46.9-22.3zM316.2 33.5l45 23.6V9.5zM312 29.8l46.6-23.4L312-17.8zM689.9 332v46.599l46.9-22.299zM638.7 356.099l46.2 23.001.3-47.1zM689.9 434.1l46.9-24.3-46.9-22.3zM640.2 410.5l45 23.6v-47.6zM635 406.8l46.6-23.4-46.6-24.2zM689.9 440v46.599l46.9-22.299zM638.7 464.099l46.2 23.001.3-47.1zM205.9 305v46.599l46.9-22.299zM154.7 329.099l46.2 23.001.3-47.1zM205.9 407.1l46.9-24.3-46.9-22.3zM155.2 383.5l45 23.6v-47.6zM151 379.8l46.6-23.4-46.6-24.2zM205.9 413v46.599l46.9-22.299zM154.7 437.099l46.2 23.001.3-47.1zM151 487.8l46.6-23.4-46.6-24.2zM528.9 361v46.599l46.9-22.299zM477.7 385.099l46.2 23.001.3-47.1zM528.9 463.1l46.9-24.3-46.9-22.3zM478.2 439.5l45 23.6v-47.6zM474 435.8l46.6-23.4-46.6-24.2zM95.9 34v46.599L49 58.3zM147.1 58.099 100.9 81.1l-.3-47.1zM95.9 136.1 49 111.8l46.9-22.3zM146.6 112.5l-45 23.6V88.5zM150.8 108.8l-46.6-23.4 46.6-24.2zM95.9 28.1 49 3.8l46.9-22.3zM146.6 4.5l-45 23.6v-47.6zM417.9 89v46.599L371 113.3zM469.1 113.099 422.9 136.1l-.3-47.1zM417.9 191.1 371 166.8l46.9-22.3zM468.6 167.5l-45 23.6v-47.6zM472.8 163.8l-46.6-23.4 46.6-24.2zM740.9 35v46.599L694 59.3zM740.9 137.1 694 112.8l46.9-22.3zM740.9 29.1 694 4.8l46.9-22.3zM256.9 8v46.599L210 32.3zM308.1 32.099 261.9 55.1 261.6 8zM256.9 110.1 210 85.8l46.9-22.3zM307.6 86.5l-45 23.6V62.5zM311.8 82.8l-46.6-23.4 46.6-24.2zM579.9 64v46.599L533 88.3zM631.1 88.099 584.9 111.1l-.3-47.1zM579.9 166.1 533 141.8l46.9-22.3zM630.6 142.5l-45 23.6v-47.6zM634.8 138.8l-46.6-23.4 46.6-24.2zM579.9 58.1 533 33.8l46.9-22.3zM630.6 34.5l-45 23.6V10.5zM634.8 30.8 588.2 7.4l46.6-24.2zM95.9 250v46.599L49 274.3zM147.1 274.099 100.9 297.1l-.3-47.1zM95.9 352.1 49 327.8l46.9-22.3zM146.6 328.5l-45 23.6v-47.6zM150.8 324.8l-46.6-23.4 46.6-24.2zM417.9 305v46.599L371 329.3zM469.1 329.099 422.9 352.1l-.3-47.1zM417.9 407.1 371 382.8l46.9-22.3zM468.6 383.5l-45 23.6v-47.6zM472.8 379.8l-46.6-23.4 46.6-24.2zM740.9 251v46.599L694 275.3zM740.9 353.1 694 328.8l46.9-22.3zM256.9 224v46.599L210 248.3zM308.1 248.099 261.9 271.1l-.3-47.1zM256.9 326.1 210 301.8l46.9-22.3zM307.6 302.5l-45 23.6v-47.6zM311.8 298.8l-46.6-23.4 46.6-24.2zM579.9 280v46.599L533 304.3zM631.1 304.099 584.9 327.1l-.3-47.1zM579.9 382.1 533 357.8l46.9-22.3zM630.6 358.5l-45 23.6v-47.6zM634.8 354.8l-46.6-23.4 46.6-24.2zM95.9 142v46.599L49 166.3zM147.1 166.099 100.9 189.1l-.3-47.1zM95.9 244.1 49 219.8l46.9-22.3zM146.6 220.5l-45 23.6v-47.6zM150.8 216.8l-46.6-23.4 46.6-24.2zM417.9 197v46.599L371 221.3zM469.1 221.099 422.9 244.1l-.3-47.1zM417.9 299.1 371 274.8l46.9-22.3zM468.6 275.5l-45 23.6v-47.6zM472.8 271.8l-46.6-23.4 46.6-24.2zM740.9 143v46.599L694 167.3zM740.9 245.1 694 220.8l46.9-22.3zM256.9 116v46.599L210 140.3zM308.1 140.099 261.9 163.1l-.3-47.1zM256.9 218.1 210 193.8l46.9-22.3zM307.6 194.5l-45 23.6v-47.6zM311.8 190.8l-46.6-23.4 46.6-24.2zM579.9 172v46.599L533 196.3zM631.1 196.099 584.9 219.1l-.3-47.1zM579.9 274.1 533 249.8l46.9-22.3zM630.6 250.5l-45 23.6v-47.6zM634.8 246.8l-46.6-23.4 46.6-24.2zM95.9 358v46.599L49 382.3zM147.1 382.099 100.9 405.1l-.3-47.1zM95.9 460.1 49 435.8l46.9-22.3zM146.6 436.5l-45 23.6v-47.6zM150.8 432.8l-46.6-23.4 46.6-24.2zM417.9 413v46.599L371 437.3zM469.1 437.099 422.9 460.1l-.3-47.1zM472.8 487.8l-46.6-23.4 46.6-24.2zM417.9-18v46.599L371 6.3zM469.1 6.099 422.9 29.1l-.3-47.1zM417.9 84.1 371 59.8l46.9-22.3zM468.6 60.5l-45 23.6V36.5zM472.8 56.8l-46.6-23.4 46.6-24.2zM740.9 359v46.599L694 383.3zM740.9 461.1 694 436.8l46.9-22.3zM256.9 332v46.599L210 356.3zM308.1 356.099 261.9 379.1l-.3-47.1zM256.9 434.1 210 409.8l46.9-22.3zM307.6 410.5l-45 23.6v-47.6zM311.8 406.8l-46.6-23.4 46.6-24.2zM256.9 440v46.599L210 464.3zM308.1 464.099 261.9 487.1l-.3-47.1zM579.9 388v46.599L533 412.3zM631.1 412.099 584.9 435.1l-.3-47.1zM579.9 490.1 533 465.8l46.9-22.3zM630.6 466.5l-45 23.6v-47.6zM634.8 462.8l-46.6-23.4 46.6-24.2z"/>
        </g>
    </g>
</svg>
